
  <svg width="1024" height="1024" viewBox="0 0 1024 1024" xmlns="http://www.w3.org/2000/svg">
    <defs>
      <!-- Deep Spiritual Navy Background Gradient -->
      <linearGradient id="iconBg" x1="0%" y1="0%" x2="100%" y2="100%">
        <stop offset="0%" stop-color="#020617"/>
        <stop offset="45%" stop-color="#071126"/>
        <stop offset="100%" stop-color="#02040a"/>
      </linearGradient>

      <!-- Radiant Center Glow -->
      <radialGradient id="spiritualGlow" cx="50%" cy="50%" r="50%">
        <stop offset="0%" stop-color="#eab308" stop-opacity="0.32"/>
        <stop offset="35%" stop-color="#0284c7" stop-opacity="0.16"/>
        <stop offset="100%" stop-color="#000000" stop-opacity="0"/>
      </radialGradient>

      <!-- Radiant Metallic Gold -->
      <linearGradient id="pureGold" x1="0%" y1="0%" x2="100%" y2="100%">
        <stop offset="0%" stop-color="#fffbeb"/>
        <stop offset="25%" stop-color="#fde047"/>
        <stop offset="55%" stop-color="#eab308"/>
        <stop offset="85%" stop-color="#ca8a04"/>
        <stop offset="100%" stop-color="#854d0e"/>
      </linearGradient>

      <!-- Subtle Accent Cyan -->
      <linearGradient id="cyanSheen" x1="0%" y1="100%" x2="100%" y2="0%">
        <stop offset="0%" stop-color="#38bdf8"/>
        <stop offset="100%" stop-color="#2dd4bf"/>
      </linearGradient>
    </defs>

    <!-- Canvas Background -->
    <rect width="1024" height="1024" fill="url(#iconBg)"/>

    <g transform="translate(512, 512) scale(0.92) translate(-512, -512)">
      <!-- Ambient Glow -->
      <circle cx="512" cy="512" r="450" fill="url(#spiritualGlow)"/>

      <!-- Outer Squircle / Circle Ring Frame -->
      <rect x="48" y="48" width="928" height="928" rx="230" fill="none" stroke="url(#pureGold)" stroke-width="6" stroke-opacity="0.9"/>
      <rect x="64" y="64" width="896" height="896" rx="215" fill="none" stroke="url(#cyanSheen)" stroke-width="2" stroke-opacity="0.35"/>

      <!-- Arabesque Beaded Ring -->
      <circle cx="512" cy="512" r="410" fill="none" stroke="url(#pureGold)" stroke-width="2.5" stroke-dasharray="14 10" stroke-opacity="0.6"/>

      <!-- Central Sacred 8-Point Star (Rub el Hizb) -->
      <polygon points="512,172 603.8440237676216,290.2689121972912 752.4163056034262,271.58369439657383 733.7310878027088,420.15597623237846 852,512 733.7310878027088,603.8440237676216 752.4163056034262,752.4163056034262 603.8440237676216,733.7310878027088 512,852 420.15597623237846,733.7310878027088 271.58369439657383,752.4163056034262 290.26891219729123,603.8440237676217 172,512 290.26891219729123,420.1559762323784 271.5836943965738,271.58369439657383 420.1559762323783,290.26891219729123" fill="#030712" stroke="url(#pureGold)" stroke-width="12" stroke-linejoin="round" />
      <polygon points="512,172 603.8440237676216,290.2689121972912 752.4163056034262,271.58369439657383 733.7310878027088,420.15597623237846 852,512 733.7310878027088,603.8440237676216 752.4163056034262,752.4163056034262 603.8440237676216,733.7310878027088 512,852 420.15597623237846,733.7310878027088 271.58369439657383,752.4163056034262 290.26891219729123,603.8440237676217 172,512 290.26891219729123,420.1559762323784 271.5836943965738,271.58369439657383 420.1559762323783,290.26891219729123" fill="none" stroke="url(#cyanSheen)" stroke-width="2" stroke-opacity="0.5" />

      <!-- Inner Concentric Medallion -->
      <circle cx="512" cy="512" r="215" fill="#020617" stroke="url(#pureGold)" stroke-width="6"/>
      <circle cx="512" cy="512" r="202" fill="none" stroke="url(#pureGold)" stroke-width="2" stroke-dasharray="8 6" stroke-opacity="0.75"/>

      <!-- Iconic Polished Golden Crescent & Star Symbol -->
      <!-- Crescent Moon -->
      <path d="M 545,395 A 125,125 0 1,0 545,629 A 100,100 0 1,1 545,395 Z" fill="url(#pureGold)" />
      
      <!-- Center Star inside Crescent -->
      <polygon points="
        560,470 567,495 593,495 572,510 580,535 560,520 540,535 548,510 527,495 553,495"
        fill="url(#pureGold)" />

      <!-- Four Cardinal Corner Ornaments -->
      <circle cx="512" cy="180" r="8" fill="url(#pureGold)"/>
      <circle cx="512" cy="844" r="8" fill="url(#pureGold)"/>
      <circle cx="180" cy="512" r="8" fill="url(#pureGold)"/>
      <circle cx="844" cy="512" r="8" fill="url(#pureGold)"/>
    </g>
  </svg>
  